<svg xmlns="http://www.w3.org/2000/svg" width="16" height="16">
    <text style="line-height:125%" x="4.75" y="56.5" font-weight="400" font-size="40" font-family="sans-serif"
          letter-spacing="0" word-spacing="0" transform="translate(0 -48)"/>
    <path d="M3.287 1.063c-1.129 0-2.037.986-2.037 2.21v9.391c0 1.224.908 2.211 2.037 2.211h9.55c1.13 0 2.038-.987 2.038-2.21V3.272c0-1.224-.908-2.21-2.037-2.21h-9.55zm.463 1.375h8.813c.553 0 1 .446 1 1v.025l.003.021-.004.49V5.25c0 .019-.008.034-.01.053l-.056 6.994a.998.998 0 01-1.008.992l-1.812-.016a.998.998 0 01-.992-1.007l.048-6.016H3.75c-.554 0-1-.446-1-1V3.437c0-.553.446-1 1-1zM4 7.688h3.5c.554 0 1 .446 1 1v3.437c0 .554-.446 1-1 1H4c-.554 0-1-.446-1-1V8.687c0-.553.446-1 1-1z"
          fill="#2ec0e1"/>
</svg>