<svg xmlns="http://www.w3.org/2000/svg" width="40" height="40">
    <path d="M36.837 7.81c0-2.816-2.427-5.082-5.44-5.082H8.282c-3.013 0-5.443 2.266-5.443 5.083v23.831c0 2.82 2.43 5.086 5.44 5.086H31.4c3.013 0 5.44-2.266 5.44-5.083V7.813zm-3.385 1.156v21.992c0 1.38-1.097 2.496-2.461 2.496h-.062l-.051.007-1.206-.01H26.53c-.047 0-.084-.02-.13-.025l-17.216-.14a2.457 2.49 0 01-2.442-2.515l.04-4.522a2.457 2.49 0 012.478-2.475l14.808.12V8.966c0-1.382 1.098-2.495 2.462-2.495h4.462c1.362 0 2.462 1.113 2.462 2.495zM20.53 9.59v8.734c0 1.383-1.098 2.495-2.462 2.495h-8.46c-1.363 0-2.461-1.112-2.461-2.495V9.59c0-1.382 1.098-2.495 2.461-2.495h8.463c1.36 0 2.461 1.113 2.461 2.495z"
          fill="#2ec0e1"/>
</svg>